<?xml version="1.0" encoding="UTF-8"?>
<svg version="1.1" xmlns="http://www.w3.org/2000/svg" width="500" height="500">
<path d="M0 0 C1.5625 2.5625 1.5625 2.5625 2 5 C1.67 5.66 1.34 6.32 1 7 C1.84304687 7.20496094 2.68609375 7.40992188 3.5546875 7.62109375 C4.65039062 7.89050781 5.74609375 8.15992188 6.875 8.4375 C7.96554688 8.70433594 9.05609375 8.97117188 10.1796875 9.24609375 C13 10 13 10 15 11 C15 12.98 15 14.96 15 17 C16.485 17.495 16.485 17.495 18 18 C17.505 19.485 17.505 19.485 17 21 C15.10290012 20.06506561 13.20737422 19.12693704 11.3125 18.1875 C10.25675781 17.66542969 9.20101562 17.14335937 8.11328125 16.60546875 C5 15 5 15 2.35546875 13.23828125 C0.13618106 11.80730905 0.13618106 11.80730905 -2.0703125 12.1484375 C-4.22898327 13.1010493 -5.96615197 14.23607167 -7.875 15.625 C-16.76088676 21.68555538 -26.18585293 26.77904791 -37 28 C-37 28.66 -37 29.32 -37 30 C-37.78375 30.598125 -38.5675 31.19625 -39.375 31.8125 C-42.30922977 34.25769147 -43.2551025 35.27551251 -44 39 C-43.3601192 44.95751092 -41.8612361 51.21194129 -37.47265625 55.48828125 C-25.09363818 64.97477629 -6.17204201 67.47401333 8.75244141 69.96508789 C28.33769581 73.26798159 47.29413566 78.35164864 66 85 C66.33 84.67 66.66 84.34 67 84 C65.6078125 83.814375 65.6078125 83.814375 64.1875 83.625 C61 83 61 83 58 81 C57.8125 77.375 57.8125 77.375 58 74 C65.86108847 71.94064571 73.67207116 70.00072109 81.6875 68.625 C88.23223853 67.47324465 94.6040673 65.86144353 101 64.0625 C102.30843872 63.70115967 102.30843872 63.70115967 103.64331055 63.33251953 C112.20494606 60.85957808 120.87264119 57.69103822 126 50 C127.4680275 45.05220362 128.48290879 40.62981718 127 35.625 C122.82365317 30.14354479 119.25146437 27.91770658 112.83203125 26.00390625 C109.0152617 24.65092725 105.43906137 22.91923275 101.8125 21.125 C101.13525879 20.79717529 100.45801758 20.46935059 99.76025391 20.1315918 C96.3851093 18.43822454 93.60402084 16.7490734 90.82421875 14.1796875 C88.28344528 11.77680352 88.28344528 11.77680352 85.64453125 11.93359375 C81.88465293 13.44976329 78.28690141 15.20007514 74.6875 17.0625 C73.57665039 17.62807617 73.57665039 17.62807617 72.44335938 18.20507812 C70.62612478 19.13128157 68.81267596 20.06490629 67 21 C66.67 20.34 66.34 19.68 66 19 C66.66 18.4225 67.32 17.845 68 17.25 C70.44290923 15.00346023 70.44290923 15.00346023 70 11 C72.88628401 9.42445965 75.53342384 8.53723627 78.75 7.875 C79.54921875 7.70742187 80.3484375 7.53984375 81.171875 7.3671875 C81.77515625 7.24601563 82.3784375 7.12484375 83 7 C82.67 5.35 82.34 3.7 82 2 C89.18269053 -4.07766122 98.04750976 -3.62918679 107 -4 C108.18335938 -4.05414063 109.36671875 -4.10828125 110.5859375 -4.1640625 C117.16868215 -4.33285082 122.02269338 -3.81285018 128 -1 C128 -0.34 128 0.32 128 1 C128.60070312 1.25652344 129.20140625 1.51304687 129.8203125 1.77734375 C132.22777484 3.12776617 133.27933443 4.33127273 134.875 6.5625 C135.63296875 7.62017578 135.63296875 7.62017578 136.40625 8.69921875 C137.19515625 9.83810547 137.19515625 9.83810547 138 11 C138.5671875 11.81082031 139.134375 12.62164062 139.71875 13.45703125 C144 19.70725236 144 19.70725236 144 22 C144.66 22 145.32 22 146 22 C146 22.66 146 23.32 146 24 C146.66 24 147.32 24 148 24 C148.62867668 25.37332284 149.25273891 26.74875833 149.875 28.125 C150.39707031 29.27355469 150.39707031 29.27355469 150.9296875 30.4453125 C154.88036542 39.87503278 155.97705425 50.86274616 152.3125 60.625 C150.40088533 64.65231633 148.15081482 67.84918518 145 71 C144.34 71 143.68 71 143 71 C142.76152344 71.59941406 142.52304687 72.19882813 142.27734375 72.81640625 C139.8299652 77.00015123 135.16085327 78.76266968 131 81 C129.86304688 81.63615234 129.86304688 81.63615234 128.703125 82.28515625 C114.56506966 89.46969091 97.51681418 92.20550266 82 95 C82.43570313 95.35449219 82.87140625 95.70898438 83.3203125 96.07421875 C90.02296726 102.06598589 94.40966033 110.38153767 96.0625 119.25 C95.92902239 127.25865673 92.54564731 133.57292163 88 140 C87.319375 140.969375 86.63875 141.93875 85.9375 142.9375 C80.76763565 148.94973841 72.98445268 154.3836844 66 158 C61.32964135 157.105676 57.59658157 155.08065814 54 152 C53.54104545 148.95254181 53.4182722 146.7502035 53.625 143.75 C53.65207031 143.00492188 53.67914063 142.25984375 53.70703125 141.4921875 C53.77749192 139.66021007 53.88511007 137.82972849 54 136 C54.66 136 55.32 136 56 136 C56 135.34 56 134.68 56 134 C56.66 134 57.32 134 58 134 C58.26554688 133.43152344 58.53109375 132.86304688 58.8046875 132.27734375 C60.48694687 129.07225481 62.63219062 126.24040765 64.7578125 123.31640625 C66.21340317 120.60205007 66.3661958 119.03843543 66 116 C61.18553413 107.91857514 51.62836076 104.69304879 43 102 C40.83343011 101.50804101 38.65790872 101.05444903 36.4765625 100.6328125 C35.2198877 100.38901855 33.96321289 100.14522461 32.66845703 99.89404297 C31.32067932 99.63747825 29.97285934 99.38113551 28.625 99.125 C27.2316003 98.856974 25.83820846 98.58890716 24.44482422 98.32080078 C16.02422782 96.71073922 7.58971973 95.23663753 -0.875 93.875 C-47.36919803 86.32759082 -47.36919803 86.32759082 -62 70 C-69.09366431 59.92036118 -71.17724195 51.15479735 -70 39 C-68.54247685 31.90439327 -65.43006174 26.76737975 -60.80859375 21.28125 C-58.23176471 18.03099479 -56.27244805 14.4904065 -54.26171875 10.87109375 C-53.84535156 10.25363281 -53.42898437 9.63617188 -53 9 C-52.34 9 -51.68 9 -51 9 C-50.76023438 8.25234375 -50.52046875 7.5046875 -50.2734375 6.734375 C-48.8124292 3.5972406 -47.37343122 2.31360616 -44.625 0.25 C-43.85414063 -0.34296875 -43.08328125 -0.9359375 -42.2890625 -1.546875 C-32.45178186 -7.79170162 -9.94791409 -5.35656913 0 0 Z M68 86 C70.36595933 88.61500768 72.86049226 90.38999603 76 92 C76.66 91.67 77.32 91.34 78 91 C76.90241493 90.15801693 75.79664683 89.32669329 74.6875 88.5 C74.07261719 88.0359375 73.45773437 87.571875 72.82421875 87.09375 C70.92566995 85.74288717 70.92566995 85.74288717 68 86 Z M78 92 C78.33 92.66 78.66 93.32 79 94 C79.66 93.67 80.32 93.34 81 93 C80.01 92.67 79.02 92.34 78 92 Z " fill="#0B0B0B" transform="translate(208,167)"/>
<path d="M0 0 C0.76626709 0.09071777 1.53253418 0.18143555 2.32202148 0.27490234 C7.83144043 0.9816125 12.76280083 2.18012033 17.9375 4.25 C18.0625 7.125 18.0625 7.125 17.9375 10.25 C17.2775 10.91 16.6175 11.57 15.9375 12.25 C14.9475 12.25 13.9575 12.25 12.9375 12.25 C12.9375 12.91 12.9375 13.57 12.9375 14.25 C12.2775 14.25 11.6175 14.25 10.9375 14.25 C8.9797172 17.93523821 8.6128912 20.99360775 9.26171875 25.12890625 C10.86251618 30.15337448 14.65296532 33.96546532 18.3125 37.625 C18.84875 38.16125 19.385 38.6975 19.9375 39.25 C19.9375 39.91 19.9375 40.57 19.9375 41.25 C20.48535156 41.33121094 21.03320312 41.41242188 21.59765625 41.49609375 C24.7457479 42.51042044 26.78308942 44.26218268 29.375 46.3125 C36.73464475 52.01195382 44.56915182 56.8189755 52.6875 61.375 C55.46835952 62.97934203 58.17781294 64.63541889 60.875 66.375 C61.64714844 66.87257813 62.41929687 67.37015625 63.21484375 67.8828125 C63.78332031 68.33398438 64.35179687 68.78515625 64.9375 69.25 C64.9375 69.91 64.9375 70.57 64.9375 71.25 C65.49953125 71.35441406 66.0615625 71.45882812 66.640625 71.56640625 C69.36130471 72.37613235 71.33007807 73.61203338 73.6875 75.1875 C74.48671875 75.71214844 75.2859375 76.23679687 76.109375 76.77734375 C76.71265625 77.26332031 77.3159375 77.74929688 77.9375 78.25 C77.9375 78.91 77.9375 79.57 77.9375 80.25 C78.5975 80.25 79.2575 80.25 79.9375 80.25 C79.9375 80.91 79.9375 81.57 79.9375 82.25 C80.5975 82.25 81.2575 82.25 81.9375 82.25 C85.58373208 85.37669124 87.68422452 88.71731086 88.46875 93.46484375 C88.64492162 99.8730863 88.38402486 104.32276975 83.9375 109.25 C83.20402344 110.19617188 82.47054687 111.14234375 81.71484375 112.1171875 C77.5965186 117.06539803 72.09721861 120.0906863 66.58691406 123.28613281 C65.23107523 124.07844361 63.90390142 124.91960705 62.5859375 125.7734375 C59.5968292 127.30838501 57.10374302 127.61404557 53.87426758 126.60595703 C53.20032959 126.28481934 52.5263916 125.96368164 51.83203125 125.6328125 C51.09968262 125.28532959 50.36733398 124.93784668 49.61279297 124.57983398 C46.32511117 122.90155958 43.12673981 121.1087594 39.9375 119.25 C40.23828125 116.87890625 40.23828125 116.87890625 40.9375 114.25 C43.27199801 112.73944246 45.47598784 111.49582656 47.9375 110.25 C52.54773064 107.38860754 52.54773064 107.38860754 55.9375 103.25 C56.60954017 99.53609379 56.76439622 95.83887084 54.9921875 92.43359375 C52.42648713 89.21436593 49.4640877 87.26519297 45.9375 85.25 C45.9375 84.59 45.9375 83.93 45.9375 83.25 C45.24140625 82.99863281 44.5453125 82.74726563 43.828125 82.48828125 C40.5517994 81.0847742 37.70068348 79.34075479 34.6875 77.4375 C31.00792732 75.13138698 27.32795736 72.8665259 23.5 70.8125 C18.77585976 68.24846849 14.30069045 65.31739901 9.80883789 62.37133789 C6.92160793 60.48539359 4.07158195 58.69709463 0.9375 57.25 C0.9375 56.59 0.9375 55.93 0.9375 55.25 C0.215625 55.023125 -0.50625 54.79625 -1.25 54.5625 C-6.44675 52.13735 -9.57624242 47.66592627 -13.0625 43.25 C-13.64 42.693125 -14.2175 42.13625 -14.8125 41.5625 C-16.0625 40.25 -16.0625 40.25 -16.0625 38.25 C-16.7225 38.25 -17.3825 38.25 -18.0625 38.25 C-21.38057597 28.55821879 -22.2882959 20.3989926 -17.8125 10.9375 C-13.10102803 2.36125537 -10.02665627 -1.21722563 0 0 Z " fill="#0C0C0C" transform="translate(218.0625,263.75)"/>
<path d="M0 0 C2.78767166 1.25396621 5.3100102 2.84468682 7.875 4.5 C8.56335938 4.92925781 9.25171875 5.35851562 9.9609375 5.80078125 C11.64812861 6.8552757 13.32513264 7.92603925 15 9 C14.53769363 12.69845093 13.97742332 16.08196328 12.98461914 19.6862793 C11.85282071 24.1562751 11.66857763 28.42461011 11.62109375 33.01953125 C11.6044165 33.91558075 11.58773926 34.81163025 11.57055664 35.73483276 C11.51696687 38.76064493 11.47714276 41.78647524 11.4375 44.8125 C11.40239572 46.97958373 11.36664825 49.14665711 11.33032227 51.3137207 C11.21573845 58.42814618 11.1210366 65.54278874 11.0300293 72.657547 C10.99819706 75.14063931 10.96592677 77.62372568 10.93359375 80.10681152 C10.59620804 106.07090742 10.28883664 132.03532172 10 158 C0.94269693 157.50596529 -7.39370934 154.67773223 -16 152 C-16.00146656 151.35138378 -16.00293312 150.70276756 -16.00444412 150.03449631 C-16.0415945 134.20763994 -16.10071749 118.38103816 -16.18390274 102.55436325 C-16.22360896 94.90049669 -16.25604396 87.2467317 -16.27099609 79.59277344 C-16.28405651 72.91682549 -16.31113212 66.2411018 -16.35461307 59.5652802 C-16.37713003 56.03473393 -16.39291662 52.50446324 -16.39188385 48.97383881 C-16.39099107 45.01976542 -16.42140736 41.06624937 -16.45410156 37.11230469 C-16.4490712 35.95855347 -16.44404083 34.80480225 -16.43885803 33.61608887 C-16.52739707 26.65717036 -17.66105684 20.96861908 -20.14419174 14.45698929 C-21 12 -21 12 -21 9 C-20.41992188 8.68546875 -19.83984375 8.3709375 -19.2421875 8.046875 C-15.61701085 6.06080462 -12.16465285 4.11945403 -8.8125 1.6875 C-5.37087171 -0.37747697 -3.97436427 -0.46344177 0 0 Z " fill="#090909" transform="translate(253,88)"/>
<path d="M0 0 C2.63981182 1.31990591 4.72342646 3.13204223 7 5 C7.99 5.33 8.98 5.66 10 6 C12.25620085 9.49519928 12.58800729 12.72000922 12.52734375 16.8046875 C11.85981362 19.58359069 10.91265879 20.39788341 8.625 22.0625 C5.45454545 24 5.45454545 24 3 24 C2.731875 24.598125 2.46375 25.19625 2.1875 25.8125 C1 28 1 28 -0.5625 29.4375 C-2.61235168 31.66559966 -2.93102598 32.96514292 -3 36 C-0.57276262 41.43701173 2.19947662 44.52728096 7 48 C7.99 48.33 8.98 48.66 10 49 C10 49.66 10 50.32 10 51 C10.58249512 51.13881592 11.16499023 51.27763184 11.76513672 51.4206543 C15.28982474 52.33436248 18.69656295 53.59431544 22.125 54.8125 C23.26461182 55.21734619 23.26461182 55.21734619 24.42724609 55.63037109 C32.63191585 58.56223369 40.53404526 61.45550581 48 66 C48 66.66 48 67.32 48 68 C48.66 68 49.32 68 50 68 C53.34756359 73.02134538 54.96974516 76.85039652 54 83 C52.41589042 89.14147098 49.18304061 94.56492671 46 100 C45.34 100 44.68 100 44 100 C43.7525 100.53625 43.505 101.0725 43.25 101.625 C41.69347463 104.5823982 39.96564327 107.29724051 38 110 C37.34 110 36.68 110 36 110 C35.773125 110.639375 35.54625 111.27875 35.3125 111.9375 C34 114 34 114 31.375 114.75 C30.59125 114.8325 29.8075 114.915 29 115 C26.43680872 111.15521308 26.87887217 108.2281432 27.1875 103.8125 C27.23503418 103.04381592 27.28256836 102.27513184 27.33154297 101.4831543 C27.62971062 97.5119497 28.05601782 94.01443031 29.625 90.3125 C31.18797752 86.54714507 31.30743062 84.83512983 30 81 C24.43552109 74.69027838 16.78296363 71.36545371 8.8125 69.125 C-7.11131891 64.55638053 -24.25510279 55.46247304 -33.19921875 41.0703125 C-35.18667092 35.93202152 -34.7711143 29.78758315 -32.625 24.8125 C-32.08875 24.214375 -31.5525 23.61625 -31 23 C-30.34 23 -29.68 23 -29 23 C-28.67 21.68 -28.34 20.36 -28 19 C-27.34 19 -26.68 19 -26 19 C-26 18.34 -26 17.68 -26 17 C-24.2031289 15.47162688 -22.33495095 14.02655272 -20.4375 12.625 C-19.88827881 12.21870361 -19.33905762 11.81240723 -18.77319336 11.39379883 C-14.97303652 8.6166534 -11.11345371 6.26659694 -7 4 C-6.113125 3.236875 -5.22625 2.47375 -4.3125 1.6875 C-2 0 -2 0 0 0 Z " fill="#0D0D0D" transform="translate(228,327)"/>
<path d="M0 0 C8.29415523 -0.31309063 15.68617174 0.48435829 23.75 2.375 C25.87149785 2.83876249 27.9939007 3.29840439 30.1171875 3.75390625 C31.13264648 3.97191895 32.14810547 4.18993164 33.19433594 4.41455078 C53.58660214 8.66974173 74.99121515 8.97073079 95 3 C102.49870482 1.0105477 110.01801889 -0.59279244 117.4375 2.375 C123.73601811 6.36918222 125.05844062 9.87196026 127 17 C127.38525461 19.90793143 127.61582489 22.75721237 127.7265625 25.6875 C127.8552837 28.27384775 127.8552837 28.27384775 130 31 C130 31.99 130 32.98 130 34 C131.32 34.66 132.64 35.32 134 36 C131.12729114 41.62572152 131.12729114 41.62572152 128.0234375 42.65625 C122.70497118 43.35248559 122.70497118 43.35248559 120 42 C120 41.34 120 40.68 120 40 C119.34 40 118.68 40 118 40 C114.18038813 33.99775277 112.10813459 27.76978431 110 21 C109.505 19.515 109.505 19.515 109 18 C107.79085937 18.45890625 106.58171875 18.9178125 105.3359375 19.390625 C85.30959973 26.92642523 62.41373897 35.08117282 41 28 C39.78699219 27.608125 38.57398438 27.21625 37.32421875 26.8125 C28.28275787 23.73942224 20.65352504 19.80612245 13 14 C11.97261719 13.22914062 10.94523437 12.45828125 9.88671875 11.6640625 C2.01654649 5.51899933 2.01654649 5.51899933 0 0 Z " fill="#0F0F0F" transform="translate(108,50)"/>
<path d="M0 0 C0 3 0 3 -2.25 5.5625 C-5 8 -5 8 -7.1875 9.0625 C-9.1645143 9.84035433 -9.1645143 9.84035433 -9.78125 11.84765625 C-14.69142304 20.51914775 -32.54246714 26.18318028 -41.75 28.875 C-64.66346976 33.99042456 -86.72100656 25.64514734 -108 18 C-108.391875 19.258125 -108.78375 20.51625 -109.1875 21.8125 C-114.96257637 38.97505092 -114.96257637 38.97505092 -121 43 C-125.64049699 43.16573204 -127.42682329 42.50000521 -130.9375 39.4375 C-131.618125 38.633125 -132.29875 37.82875 -133 37 C-132.60167969 36.55914062 -132.20335937 36.11828125 -131.79296875 35.6640625 C-126.51226762 28.95718661 -125.71008484 22.22524053 -124.640625 14.01171875 C-123.96230666 9.19171355 -123.09297348 6.83161026 -119.125 3.8125 C-109.6294346 -1.69492793 -99.00405088 1.40833223 -89 4 C-88.12851318 4.25064209 -87.25702637 4.50128418 -86.35913086 4.75952148 C-78.90770218 6.80626846 -72.02640122 7.50766267 -64.3125 7.4375 C-63.15274658 7.43210205 -61.99299316 7.4267041 -60.7980957 7.42114258 C-44.86981216 7.14806162 -29.44476474 4.07073821 -13.96875 0.52734375 C-9.30414413 -0.30123756 -4.71767846 -0.25995371 0 0 Z " fill="#0F0F0F" transform="translate(391,50)"/>
<path d="M0 0 C5.5818033 -0.24152034 10.86971244 0.08757971 16.390625 0.94140625 C23.87331936 1.97667957 31.34326451 2.26307293 38.88926697 2.47679138 C40.93616166 2.53556648 42.98277239 2.60052795 45.02941895 2.6673584 C46.42455879 2.7125379 47.81970041 2.75766277 49.21484375 2.80273438 C50.26349735 2.83661381 50.26349735 2.83661381 51.33333588 2.87117767 C54.90776356 2.98365076 58.48157293 3.08064511 62.05712891 3.14916992 C65.57228829 3.2177394 69.08394832 3.32904039 72.59702301 3.46743584 C74.54573576 3.53301464 76.49578089 3.55437267 78.44549561 3.57423401 C88.51128036 4.01497795 93.70220052 7.39726658 101 14 C100.64819336 15.90014648 100.64819336 15.90014648 100 18 C97.62890625 19.59765625 97.62890625 19.59765625 94.5625 21.0625 C93.07943359 21.79146484 93.07943359 21.79146484 91.56640625 22.53515625 C83.65794727 25.78342801 75.77438241 27.59246823 67.3125 28.6875 C66.35061768 28.8119751 65.38873535 28.9364502 64.39770508 29.06469727 C47.31834133 31.15304738 29.81943682 31.13601466 15.25 20.80859375 C12.21064642 18.36550225 9.54706788 15.96010591 7 13 C7 12.34 7 11.68 7 11 C6.34 11 5.68 11 5 11 C3.7109375 9.35546875 3.7109375 9.35546875 2.375 7.1875 C1.92898437 6.47980469 1.48296875 5.77210937 1.0234375 5.04296875 C0 3 0 3 0 0 Z " fill="#0C0C0C" transform="translate(23,53)"/>
<path d="M0 0 C-4.19899594 8.73312301 -9.87331866 16.58221244 -18 22 C-18.99 22 -19.98 22 -21 22 C-21 22.66 -21 23.32 -21 24 C-43.32759186 32.74426601 -69.58037903 32.13543156 -91.9375 22.9375 C-95.59911411 21.32296372 -99.04730354 19.73924852 -102 17 C-102 16.01 -102 15.02 -102 14 C-99.56333739 11.77219418 -97.0912612 10.05392707 -94.25 8.375 C-91.87854191 7.1987496 -91.87854191 7.1987496 -91 5 C-90.23373291 4.96685699 -89.46746582 4.93371399 -88.67797852 4.89956665 C-81.3834541 4.58289749 -74.08924784 4.25990578 -66.79530334 3.93017006 C-63.04726811 3.76094723 -59.29916304 3.59399667 -55.55078125 3.43261719 C-51.9194793 3.27618824 -48.28851506 3.11329735 -44.65768433 2.94630051 C-42.62883172 2.85456182 -40.59969526 2.76916876 -38.57055664 2.68399048 C-30.49805847 2.3061875 -22.58501314 1.5318896 -14.58764648 0.41976929 C-9.70937201 -0.15100874 -4.90230683 -0.18695238 0 0 Z " fill="#0B0B0B" transform="translate(478,53)"/>
<path d="M0 0 C3.11505362 1.02730492 6.21656108 2.07756266 9.3046875 3.18359375 C18.4617245 6.3995772 27.41723094 8.44319449 37 10 C37.83023682 10.17490967 38.66047363 10.34981934 39.51586914 10.5300293 C44.45209168 11.1958711 49.32971617 11.12232581 54.3046875 11.09765625 C55.38380402 11.0962413 56.46292053 11.09482635 57.57473755 11.09336853 C61.00818702 11.08778844 64.44157036 11.07523955 67.875 11.0625 C70.20833239 11.05748243 72.5416658 11.05291997 74.875 11.04882812 C80.58335575 11.03782553 86.29167315 11.02110721 92 11 C90.46593371 14.31467895 89.13688367 16.03944771 86 18 C85.34 18 84.68 18 84 18 C84 18.66 84 19.32 84 20 C65.47931377 30.65192473 46.32446173 34.71884381 25.0625 29.4375 C22.68909064 28.68305653 20.33475982 27.86669114 18 27 C16.90655273 26.5980542 16.90655273 26.5980542 15.79101562 26.18798828 C13.45429372 25.31684196 11.13133744 24.41764245 8.8125 23.5 C8.09263916 23.21568115 7.37277832 22.9313623 6.63110352 22.63842773 C2.70215642 20.99485175 -0.32633824 19.45839885 -3 16 C-2.875 13.375 -2.875 13.375 -2 10 C-1.63821925 8.20985527 -1.28446512 6.4180752 -0.9375 4.625 C-0.62594465 3.08314215 -0.31376521 1.54140966 0 0 Z " fill="#0F0F0F" transform="translate(373,74)"/>
<path d="M0 0 C2 1 2 1 2.81640625 3.3984375 C3.06261719 4.38070312 3.30882812 5.36296875 3.5625 6.375 C4.3054379 9.29285972 5.04749464 12.14248391 6 15 C-4.30151277 25.82979548 -22.23605228 30.71219962 -36.71875 31.27734375 C-54.5982051 31.69233539 -70.77719966 29.53746548 -84.80957031 17.43994141 C-86.27428888 16.02713583 -87.64616761 14.51939394 -89 13 C-89 12.34 -89 11.68 -89 11 C-88.43640274 11.00666183 -87.87280548 11.01332367 -87.29212952 11.02018738 C-81.33682054 11.08742552 -75.38162216 11.13216032 -69.42602539 11.16479492 C-67.21406666 11.17972649 -65.0021367 11.20007911 -62.7902832 11.22631836 C-49.48263774 11.38004201 -37.00822805 10.97724815 -24 8 C-22.82445557 7.73525879 -21.64891113 7.47051758 -20.43774414 7.19775391 C-13.92424936 5.68293837 -7.568051 3.87792158 -1.625 0.75 C-1.08875 0.5025 -0.5525 0.255 0 0 Z " fill="#0D0D0D" transform="translate(125,74)"/>
<path d="M0 0 C4.08598408 1.48026832 8.03564249 3.22305338 12 5 C12.89074219 5.37898438 13.78148437 5.75796875 14.69921875 6.1484375 C20.73292254 8.73292254 20.73292254 8.73292254 23 11 C23.24291992 13.24316406 23.24291992 13.24316406 23.23046875 16.015625 C23.22853516 17.01980469 23.22660156 18.02398437 23.22460938 19.05859375 C23.20624023 20.63833984 23.20624023 20.63833984 23.1875 22.25 C23.18685547 23.28769531 23.18621094 24.32539063 23.18554688 25.39453125 C23.15698641 30.36405148 23.05192464 35.11906965 22 40 C18.74475735 36.97727468 16.38179263 33.74281699 14 30 C14.42152344 30.74765625 14.84304687 31.4953125 15.27734375 32.265625 C15.82519531 33.25046875 16.37304688 34.2353125 16.9375 35.25 C17.48277344 36.22453125 18.02804688 37.1990625 18.58984375 38.203125 C19.76610835 40.53610409 20.52101691 42.45350762 21 45 C21.66 45 22.32 45 23 45 C32 55.10306407 32 55.10306407 32 60 C32.66 60 33.32 60 34 60 C35.69140625 62.23046875 35.69140625 62.23046875 37.5625 65.1875 C38.18253906 66.15042969 38.80257812 67.11335938 39.44140625 68.10546875 C40.91166708 70.83595315 41.59289154 72.949475 42 76 C36.58150464 75.67160634 33.80443045 72.47070848 30 69 C28.85808608 68.07845543 27.71255509 67.16136441 26.5625 66.25 C25.716875 65.5075 24.87125 64.765 24 64 C24 63.34 24 62.68 24 62 C23.43796875 61.7628125 22.8759375 61.525625 22.296875 61.28125 C19.48105958 59.71052303 17.52044584 57.78528536 15.25 55.5 C14.45078125 54.7059375 13.6515625 53.911875 12.828125 53.09375 C11 51 11 51 11 49 C10.34 49 9.68 49 9 49 C9 48.34 9 47.68 9 47 C8.401875 46.7525 7.80375 46.505 7.1875 46.25 C4.68373081 44.81927475 3.51927612 43.4308418 2 41 C2 40.34 2 39.68 2 39 C1.01 38.67 0.02 38.34 -1 38 C-2.61438316 35.81824305 -4.07069373 33.67226784 -5.5 31.375 C-5.89058594 30.77042969 -6.28117188 30.16585938 -6.68359375 29.54296875 C-10.44329429 23.60593321 -13.4313639 18.07079139 -13.375 10.875 C-13.38273438 9.88242187 -13.39046875 8.88984375 -13.3984375 7.8671875 C-12.94061075 4.57263033 -11.94994191 2.67284721 -10 0 C-6.69003651 -1.65498174 -3.47436501 -0.80684306 0 0 Z M11 11 C9.2910871 12.5787681 9.2910871 12.5787681 8 15 C8.18541526 20.00621196 9.56464309 23.65871159 12 28 C12.33 28 12.66 28 13 28 C13.05383848 25.54137599 13.09359038 23.0839245 13.125 20.625 C13.14175781 19.92632812 13.15851563 19.22765625 13.17578125 18.5078125 C13.19344267 16.67102514 13.10303261 14.83398037 13 13 C12.34 12.34 11.68 11.68 11 11 Z " fill="#131313" transform="translate(232,395)"/>
<path d="M0 0 C0.78761719 0.45890625 1.57523437 0.9178125 2.38671875 1.390625 C10.08341436 5.72627838 17.4511954 8.63637702 26 11 C26.77085937 11.27585937 27.54171875 11.55171875 28.3359375 11.8359375 C40.54994686 16.16441099 54.68318684 16.13638209 67.53149414 16.57080078 C71.41647725 16.73977606 74.48424727 17.32002567 78 19 C77.42655063 21.86724686 77.1385485 22.8614515 75 25 C55.75141975 33.5473672 38.0866594 33.72071255 18.42944336 26.20874023 C15.21009256 24.94240613 12.05719168 23.62218334 9 22 C9 21.34 9 20.68 9 20 C7.7315625 19.690625 7.7315625 19.690625 6.4375 19.375 C2.23490484 17.69396194 -0.93644112 15.33547239 -4 12 C-4 11.34 -4 10.68 -4 10 C-4.66 10 -5.32 10 -6 10 C-6 9.34 -6 8.68 -6 8 C-5.34 8 -4.68 8 -4 8 C-3.71125 7.05125 -3.4225 6.1025 -3.125 5.125 C-2 2 -2 2 0 0 Z " fill="#151515" transform="translate(371,93)"/>
<path d="M0 0 C5.09308002 6.18371937 5.09308002 6.18371937 5 10 C-1.90032623 21.94287232 -19.49957766 27.39039032 -32.0859375 30.84765625 C-46.91911567 33.915889 -62.87907895 31.59632271 -76 24 C-76.66 23.34 -77.32 22.68 -78 22 C-77.625 19.875 -77.625 19.875 -77 18 C-73.88996262 17.12240168 -70.92371228 16.76443647 -67.703125 16.53515625 C-66.15359131 16.42059082 -66.15359131 16.42059082 -64.57275391 16.30371094 C-63.47624512 16.22411133 -62.37973633 16.14451172 -61.25 16.0625 C-56.83273336 15.71567678 -52.41634927 15.35829164 -48 15 C-47.19788086 14.93731934 -46.39576172 14.87463867 -45.56933594 14.81005859 C-29.15317579 13.4604206 -14.05094221 8.52642454 0 0 Z " fill="#141414" transform="translate(129,93)"/>
<path d="M0 0 C3.364991 0.30032374 5.18636524 1.76548004 7.625 4 C10.12374312 6.27217224 10.12374312 6.27217224 13 8 C12.67 9.32 12.34 10.64 12 12 C11.34 12 10.68 12 10 12 C10 12.66 10 13.32 10 14 C9.34 14 8.68 14 8 14 C8 14.66 8 15.32 8 16 C7.34 16 6.68 16 6 16 C6 16.66 6 17.32 6 18 C-6.43431237 27.98713387 -20.51622892 33.36995932 -36.375 33.3125 C-37.25671875 33.32861328 -38.1384375 33.34472656 -39.046875 33.36132812 C-46.08436172 33.36648757 -52.65910272 32.17044864 -59 29 C-59 27.68 -59 26.36 -59 25 C-51.7106975 22.80708379 -44.43378816 20.84736332 -37.00830078 19.18334961 C-26.02421664 16.724667 -26.02421664 16.724667 -15.83984375 12.015625 C-13.90673599 10.94851668 -12.15505685 10.44157067 -10 10 C-10 9.34 -10 8.68 -10 8 C-8.33333333 7 -6.66666667 6 -5 5 C-3.7315625 3.63875 -3.7315625 3.63875 -2.4375 2.25 C-1.633125 1.5075 -0.82875 0.765 0 0 Z " fill="#151515" transform="translate(135,106)"/>
<path d="M0 0 C2.59335778 1.0520225 3.97532366 2.47952426 5.9453125 4.46484375 C16.88441832 14.35960128 29.58775804 17.24846573 43.57177734 20.27246094 C49.14041784 21.53702225 54.60398396 23.19535163 60.0703125 24.83984375 C60.0703125 26.15984375 60.0703125 27.47984375 60.0703125 28.83984375 C44.82367035 33.9220578 30.34896601 35.15387123 15.0703125 28.83984375 C14.20792969 28.49308594 13.34554688 28.14632812 12.45703125 27.7890625 C8.50122919 26.11221678 4.58341237 24.3330114 1.0703125 21.83984375 C1.0703125 21.17984375 1.0703125 20.51984375 1.0703125 19.83984375 C0.2246875 19.67484375 -0.6209375 19.50984375 -1.4921875 19.33984375 C-6.19556467 17.28746098 -8.9970442 14.00454429 -11.9296875 9.83984375 C-11.9296875 9.17984375 -11.9296875 8.51984375 -11.9296875 7.83984375 C-10.2796875 7.17984375 -8.6296875 6.51984375 -6.9296875 5.83984375 C-6.9296875 5.17984375 -6.9296875 4.51984375 -6.9296875 3.83984375 C-2.7457378 -0.22788512 -2.7457378 -0.22788512 0 0 Z " fill="#151515" transform="translate(363.9296875,106.16015625)"/>
<path d="M0 0 C19.48676171 3.48676171 19.48676171 3.48676171 24 8 C24.0169943 11.1042289 23.97069459 14.18355135 23.87890625 17.28515625 C23.85529526 18.21597519 23.83168427 19.14679413 23.80735779 20.1058197 C23.73051875 23.09152725 23.64658205 26.07698848 23.5625 29.0625 C23.50929955 31.08136798 23.45655904 33.10024814 23.40429688 35.11914062 C23.27487636 40.07958434 23.1390882 45.03981833 23 50 C19.84624194 49.27344742 17.50636196 48.28267404 14.75 46.5625 C14.04359375 46.13066406 13.3371875 45.69882812 12.609375 45.25390625 C11.81273437 44.63322266 11.81273437 44.63322266 11 44 C11 43.34 11 42.68 11 42 C10.278125 41.7525 9.55625 41.505 8.8125 41.25 C5.61269952 39.82786645 3.50975301 38.45444945 1 36 C0.2487793 32.97900391 0.2487793 32.97900391 0.07421875 29.4765625 C0.00009766 28.208125 -0.07402344 26.9396875 -0.15039062 25.6328125 C-0.20482794 24.29689127 -0.25886092 22.96095351 -0.3125 21.625 C-0.38533203 20.31015625 -0.45816406 18.9953125 -0.53320312 17.640625 C-1.15073371 6.04281253 -1.15073371 6.04281253 -1 1 C-0.67 0.67 -0.34 0.34 0 0 Z " fill="#111111" transform="translate(238,267)"/>
<path d="M0 0 C2.38861807 0.97798136 4.58107229 2.12588613 6.8203125 3.41015625 C7.61953125 3.86519531 8.41875 4.32023437 9.2421875 4.7890625 C9.84546875 5.13839844 10.44875 5.48773438 11.0703125 5.84765625 C10.50481857 9.7781881 9.35648692 12.38173162 7.1328125 15.66015625 C6.60816406 16.45035156 6.08351562 17.24054688 5.54296875 18.0546875 C5.05699219 18.64636719 4.57101563 19.23804688 4.0703125 19.84765625 C3.4103125 19.84765625 2.7503125 19.84765625 2.0703125 19.84765625 C2.0703125 20.50765625 2.0703125 21.16765625 2.0703125 21.84765625 C-7.60534502 30.01821149 -19.08235666 32.02411213 -31.4296875 32.03515625 C-32.15027344 32.04740234 -32.87085937 32.05964844 -33.61328125 32.07226562 C-38.42442933 32.08531576 -42.36250871 31.36804603 -46.9296875 29.84765625 C-46.63256836 27.97265625 -46.63256836 27.97265625 -45.9296875 25.84765625 C-43.45009497 24.31991693 -41.11694581 23.0672439 -38.4921875 21.84765625 C-37.76370605 21.49517822 -37.03522461 21.1427002 -36.28466797 20.77954102 C-32.431112 18.93733453 -28.56301415 17.26663378 -24.5546875 15.78515625 C-16.42904564 12.67668923 -9.84969583 7.08783469 -3.71875 1.03515625 C-1.9296875 -0.15234375 -1.9296875 -0.15234375 0 0 Z " fill="#161616" transform="translate(147.9296875,121.15234375)"/>
<path d="M0 0 C2.29988671 0.93554714 3.99377661 2.09823804 5.84375 3.75 C5.84375 4.41 5.84375 5.07 5.84375 5.75 C6.38128906 6.00136719 6.91882813 6.25273438 7.47265625 6.51171875 C10.3656438 8.02255409 13.04034355 9.79056666 15.78125 11.5625 C21.2402842 15.01288956 26.72668629 17.40062502 32.8125 19.6015625 C36.9967979 21.18685062 41.34791639 22.90751394 44.84375 25.75 C45.578125 27.90234375 45.578125 27.90234375 45.84375 29.75 C41.13208924 31.59785445 36.85655527 32.10141663 31.84375 32.0625 C30.73205444 32.05621582 30.73205444 32.05621582 29.59790039 32.04980469 C18.41097474 31.82474936 6.67566649 30.03941263 -1.84375 22.3125 C-2.606875 21.466875 -3.37 20.62125 -4.15625 19.75 C-5.043125 18.88375 -5.93 18.0175 -6.84375 17.125 C-9.42280206 14.47624383 -10.96020126 12.55201757 -11.84375 8.9375 C-10.85955492 4.37441371 -8.29741811 3.21948705 -4.515625 0.75390625 C-2.15625 -0.25 -2.15625 -0.25 0 0 Z " fill="#151515" transform="translate(353.15625,121.25)"/>
<path d="M0 0 C0.7528125 0.25394531 1.505625 0.50789063 2.28125 0.76953125 C21.37063879 6.95504922 39.11428498 8.18352949 59 6 C56.33461786 12.64160795 48.83310942 16.29916188 42.625 19.25 C33.178633 23.12200909 22.74507265 26.07581663 12.75 22.8125 C9.02575467 21.24283795 6.6358371 19.08769489 4 16 C3.22849609 15.10667969 3.22849609 15.10667969 2.44140625 14.1953125 C0.71081264 11.55955747 0.26327913 9.41287154 -0.25 6.3125 C-0.42015625 5.33925781 -0.5903125 4.36601563 -0.765625 3.36328125 C-0.88164062 2.19345703 -0.88164062 2.19345703 -1 1 C-0.67 0.67 -0.34 0.34 0 0 Z " fill="#1A1A1A" transform="translate(130,75)"/>
<path d="M0 0 C-0.45150539 6.92308258 -2.71687121 13.70937548 -7.7109375 18.71484375 C-10.97532332 21.17382434 -13.86854063 22.70489576 -18 23 C-18.62261719 23.05027344 -19.24523437 23.10054687 -19.88671875 23.15234375 C-31.33033474 23.66597104 -41.14459002 19.39950653 -51 14 C-51 13.34 -51 12.68 -51 12 C-51.928125 11.731875 -52.85625 11.46375 -53.8125 11.1875 C-56.75781025 10.09022755 -58.15017877 9.46642831 -60 7 C-60 6.34 -60 5.68 -60 5 C-59.34257812 5.0721875 -58.68515625 5.144375 -58.0078125 5.21875 C-40.06797719 6.96897783 -23.20460621 6.41066121 -6.015625 0.55078125 C-4 0 -4 0 0 0 Z " fill="#191919" transform="translate(371,76)"/>
<path d="M0 0 C0.66 0 1.32 0 2 0 C1.51411095 10.49520341 -2.38171028 17.7651253 -10 25 C-15.65392954 28.72918757 -21.71983458 29.57130813 -28.3125 28.5 C-36.60318502 26.37344648 -44.22785942 21.07593258 -49 14 C-49 13.34 -49 12.68 -49 12 C-48.30551758 12.02618408 -47.61103516 12.05236816 -46.89550781 12.0793457 C-29.91778889 13.07738504 -29.91778889 13.07738504 -14.0390625 8.09375 C-12 7 -12 7 -9 7 C-9 6.34 -9 5.68 -9 5 C-8.43410156 4.72285156 -7.86820313 4.44570312 -7.28515625 4.16015625 C-6.18494141 3.61681641 -6.18494141 3.61681641 -5.0625 3.0625 C-4.33160156 2.70285156 -3.60070312 2.34320313 -2.84765625 1.97265625 C-1.03750973 1.13628173 -1.03750973 1.13628173 0 0 Z " fill="#1B1B1B" transform="translate(185,88)"/>
<path d="M0 0 C3.75345656 0.71971619 6.86091969 2.33112202 10.25 4.0625 C11.32765625 4.61035156 12.4053125 5.15820312 13.515625 5.72265625 C14.74539063 6.35494141 14.74539063 6.35494141 16 7 C16 7.66 16 8.32 16 9 C17.051875 9.185625 17.051875 9.185625 18.125 9.375 C21 10 21 10 23.80126953 11.02685547 C27.08508155 12.02588422 29.63611368 12.23055553 33.0546875 12.1953125 C34.71757812 12.18564453 34.71757812 12.18564453 36.4140625 12.17578125 C38.12722656 12.15064453 38.12722656 12.15064453 39.875 12.125 C41.0403125 12.11597656 42.205625 12.10695313 43.40625 12.09765625 C46.27104577 12.07417432 49.13541535 12.04133141 52 12 C51.34 13.65 50.68 15.3 50 17 C49.34 17 48.68 17 48 17 C47.76152344 17.59554687 47.52304687 18.19109375 47.27734375 18.8046875 C44.42182129 23.71234384 38.4474862 26.21159408 33.2109375 27.8984375 C26.21319104 29.41625856 20.12805575 29.48138646 13.875 25.72265625 C7.8351021 21.04402322 4.95411401 14.9054767 2 8 C1.61585938 7.11570312 1.23171875 6.23140625 0.8359375 5.3203125 C0 3 0 3 0 0 Z " fill="#1A1A1A" transform="translate(312,88)"/>
<path d="M0 0 C7.0066801 1.26294905 12.79090601 4.18643894 18 9 C19.30061771 12.71843267 18.88251257 15.90824954 18.30419922 19.76367188 C17.93352505 22.48869226 17.7174891 25.21135719 17.50390625 27.953125 C17.05920642 33.64133962 16.54732076 39.32081928 16 45 C14.41532272 44.71572583 12.8322943 44.42225182 11.25 44.125 C10.36828125 43.96257812 9.4865625 43.80015625 8.578125 43.6328125 C4.0101177 42.51157434 4.0101177 42.51157434 2 41 C1.36230469 38.40893555 1.36230469 38.40893555 1.171875 35.13671875 C1.05585938 33.33944336 1.05585938 33.33944336 0.9375 31.50585938 C0.875625 30.24580078 0.81375 28.98574219 0.75 27.6875 C0.67265625 26.46998047 0.5953125 25.25246094 0.515625 23.99804688 C0.03899696 15.99324915 -0.09082975 8.01740765 0 0 Z " fill="#171717" transform="translate(241,337)"/>
<path d="M0 0 C0.66 0 1.32 0 2 0 C3.24597753 4.4320844 3.22179067 8.67303684 3.25 13.25 C3.270625 14.07113281 3.29125 14.89226562 3.3125 15.73828125 C3.35764194 22.85942227 2.27499704 28.51337533 -2.6875 33.9375 C-7.83616363 37.14327169 -11.82022085 37.30065919 -17.625 36.5 C-24.08083645 34.65917916 -30.07702892 31.11122357 -36 28 C-36 27.01 -36 26.02 -36 25 C-35.02160156 24.89042969 -34.04320312 24.78085938 -33.03515625 24.66796875 C-18.34468758 23.19439433 -18.34468758 23.19439433 -6.50390625 15.10546875 C-3.85497117 11.39695964 -2.40047457 7.30683576 -1 3 C-0.67 2.01 -0.34 1.02 0 0 Z " fill="#1D1D1D" transform="translate(188,94)"/>
<path d="M0 0 C0.99 0.33 1.98 0.66 3 1 C3.43579521 2.91079437 3.86848835 4.82237927 4.28125 6.73828125 C6.10918349 12.49031111 10.89207815 17.93524689 16 21 C23.1775615 23.62507192 30.40413135 24.57392613 38 25 C38 25.99 38 26.98 38 28 C18.44099328 38.65310664 18.44099328 38.65310664 9.9453125 36.47265625 C5.88083155 34.91263763 2.93496986 32.95843482 1.05078125 29.01171875 C-1.94118994 19.59255018 -1.84214165 9.67124365 0 0 Z " fill="#1F1F1F" transform="translate(310,94)"/>
<path d="M0 0 C0.99 0 1.98 0 3 0 C2.79503906 0.58523437 2.59007812 1.17046875 2.37890625 1.7734375 C-0.44095092 10.75920247 -0.70204945 19.66079153 -1 29 C-6.2569889 29.2905417 -8.62829732 27.74302913 -13 25 C-13.25136719 25.61488281 -13.50273437 26.22976562 -13.76171875 26.86328125 C-15.8286893 30.42994651 -19.28173376 31.5141154 -23 33 C-26 33.75 -26 33.75 -28 34 C-26.69989364 23.33912781 -21.06077255 14.85872752 -13 8 C-10.66940478 6.66255615 -9.18028719 6.0225359 -6.5 5.6875 C-3.08924824 4.74954327 -2.10993449 2.74291484 0 0 Z M-10 10 C-9 12 -9 12 -9 12 Z M-12 13 C-12 16 -12 16 -12 16 Z M-16 21 C-15.67 21.99 -15.34 22.98 -15 24 C-15 23.01 -15 22.02 -15 21 C-15.33 21 -15.66 21 -16 21 Z " fill="#212121" transform="translate(297,108)"/>
<path d="M0 0 C0.99 0 1.98 0 3 0 C3 0.66 3 1.32 3 2 C3.66 2 4.32 2 5 2 C5.61875 2.639375 6.2375 3.27875 6.875 3.9375 C9.09022971 6.0875759 10.04317239 6.52309232 13 7 C13.99 7.33 14.98 7.66 16 8 C16 8.66 16 9.32 16 10 C16.5878125 10.25652344 17.175625 10.51304688 17.78125 10.77734375 C24.49959607 14.47953093 28.76046017 21.86061849 31 29 C31.25 32.0625 31.25 32.0625 31 34 C25.98491285 32.45941767 21.3852919 30.97068161 17 28 C17.33 25.36 17.66 22.72 18 20 C17.814375 20.7425 17.62875 21.485 17.4375 22.25 C15.34588958 26.25134166 13.08118817 27.10013654 9 29 C7.68 29 6.36 29 5 29 C4.89042969 27.70964844 4.78085938 26.41929687 4.66796875 25.08984375 C4.50841916 23.37233937 4.34822888 21.65489442 4.1875 19.9375 C4.08211914 18.66616211 4.08211914 18.66616211 3.97460938 17.36914062 C3.45318663 11.96720101 2.28261563 7.90918703 0 3 C0 2.01 0 1.02 0 0 Z M12 10 C13 12 13 12 13 12 Z M16 16 C17 18 17 18 17 18 Z " fill="#1F1F1F" transform="translate(200,108)"/>
<path d="M0 0 C1.47968324 0.14049518 2.95874516 0.28754826 4.4375 0.4375 C5.67306641 0.55931641 5.67306641 0.55931641 6.93359375 0.68359375 C9 1 9 1 10 2 C10.41512464 8.64199416 9.75690369 15.11365822 6.25 20.875 C1.48185602 25.37824709 -3.19402169 26.41491897 -9.625 26.75 C-10.91664063 26.82734375 -12.20828125 26.9046875 -13.5390625 26.984375 C-16.33475937 26.99699666 -18.38163945 26.87721724 -21 26 C-19.6082886 22.68130359 -18.13354851 21.09600576 -15.1875 19.0625 C-11.79227965 16.62679844 -8.87964745 14.04419873 -6 11 C-5.4946875 10.54367188 -4.989375 10.08734375 -4.46875 9.6171875 C-2.78246121 7.76047591 -2.12552383 6.17414066 -1.3125 3.8125 C-1.06113281 3.09707031 -0.80976563 2.38164062 -0.55078125 1.64453125 C-0.36902344 1.10183594 -0.18726563 0.55914062 0 0 Z " fill="#1E1E1E" transform="translate(161,130)"/>
<path d="M0 0 C0.39832031 0.83144531 0.79664063 1.66289062 1.20703125 2.51953125 C1.73683594 3.60621094 2.26664062 4.69289062 2.8125 5.8125 C3.33457031 6.89144531 3.85664063 7.97039062 4.39453125 9.08203125 C6.54104136 12.98335255 7.76725032 14.58908344 12 16 C12 16.66 12 17.32 12 18 C12.763125 18.268125 13.52625 18.53625 14.3125 18.8125 C16.90483979 19.95795247 18.30075537 20.76415181 20 23 C20 23.99 20 24.98 20 26 C11.83287177 27.36118804 3.10595612 27.90649351 -4 23 C-9.17042948 17.68594748 -9.76023246 10.19302607 -10 3 C-6.84916414 -0.15083586 -4.41812253 0 0 0 Z " fill="#1C1C1C" transform="translate(339,130)"/>
<path d="M0 0 C8.58 0 17.16 0 26 0 C26 10.33333333 26 10.33333333 22 15 C18.2092509 18.37134708 15.41673375 18.56760277 10.4765625 18.421875 C6.39184337 17.72605534 4.76990719 16.04689791 2 13 C0 9 0 9 0 0 Z " fill="#1E1E1E" transform="translate(237,69)"/>
<path d="M0 0 C0 0.66 0 1.32 0 2 C0.66 2 1.32 2 2 2 C2.97310536 3.63714266 3.92765722 5.28531605 4.875 6.9375 C5.67550781 8.31228516 5.67550781 8.31228516 6.4921875 9.71484375 C8 13 8 13 10 22 C1.42 22 -7.16 22 -16 22 C-12.58490566 11.75471698 -12.58490566 11.75471698 -10.5 7.625 C-9.89671875 6.40683594 -9.89671875 6.40683594 -9.28125 5.1640625 C-6.70460942 0.81205372 -5.12395454 -0.41545577 0 0 Z " fill="#171717" transform="translate(253,44)"/>
<path d="M0 0 C6.73184972 5.81125489 8.49293258 17.78842414 9.1875 26.296875 C9.2981857 30.08786026 9.14833907 31.77749139 7 35 C-1.3137529 36.1397887 -9.22333147 35.0103233 -17 32 C-14.48943147 29.29807716 -11.97697574 27.81070482 -8.71875 26.16015625 C-2.92530028 22.24957769 -2.28596849 15.39789292 -1 9 C-0.55733531 5.99409596 -0.2525008 3.03000964 0 0 Z " fill="#242424" transform="translate(194,102)"/>
<path d="M0 0 C0.33 0 0.66 0 1 0 C1.03738281 0.76183594 1.07476562 1.52367188 1.11328125 2.30859375 C1.66187157 10.92468871 2.40266402 19.75927677 9 26 C11.59421378 27.51370632 14.24639978 28.80365427 17 30 C16.67 30.99 16.34 31.98 16 33 C8.99408321 35.61004743 1.39773595 35.66016541 -6 35 C-8.42379475 32.57620525 -8.37593775 31.84968068 -8.5 28.5 C-8.3715063 18.82442452 -4.4141517 8.54632121 0 0 Z " fill="#1C1C1C" transform="translate(305,102)"/>
<path d="M0 0 C2.74190982 2.33868779 3.84884523 4.45419797 5.125 7.8125 C5.3125 10.6875 5.3125 10.6875 5.125 12.8125 C4.135 13.3075 4.135 13.3075 3.125 13.8125 C0.5 12.375 0.5 12.375 -1.875 10.8125 C-1.524375 11.493125 -1.17375 12.17375 -0.8125 12.875 C0.35853912 16.54425591 -0.08533734 19.07954924 -0.875 22.8125 C-1.875 23.8125 -1.875 23.8125 -4.25 24.125 C-6.875 23.8125 -6.875 23.8125 -8.6875 21.9375 C-9.875 19.8125 -9.875 19.8125 -9.875 17.8125 C-10.535 17.8125 -11.195 17.8125 -11.875 17.8125 C-13.0234375 16.203125 -13.0234375 16.203125 -14.25 14.0625 C-16.16260473 10.85023212 -18.17402347 8.41344036 -20.875 5.8125 C-20.875 5.1525 -20.875 4.4925 -20.875 3.8125 C-16.03871695 4.80293705 -11.39881127 5.76948846 -6.875 7.8125 C-6.875 7.1525 -6.875 6.4925 -6.875 5.8125 C-10.79938786 4.14760818 -14.76600419 2.94045963 -18.875 1.8125 C-18.545 0.8225 -18.215 -0.1675 -17.875 -1.1875 C-11.71298552 -2.60950334 -5.85725701 -2.41930181 0 0 Z " fill="#282828" transform="translate(303.875,77.1875)"/>
<path d="M0 0 C0.97582031 0.10183594 1.95164063 0.20367187 2.95703125 0.30859375 C3.69308594 0.39238281 4.42914063 0.47617188 5.1875 0.5625 C5.1875 1.5525 5.1875 2.5425 5.1875 3.5625 C4.58421875 3.74425781 3.9809375 3.92601563 3.359375 4.11328125 C-2.66835198 5.98237906 -2.66835198 5.98237906 -7.8125 9.5625 C-7.008125 9.27375 -6.20375 8.985 -5.375 8.6875 C-1.23118933 7.37892821 2.93728663 6.45032235 7.1875 5.5625 C6.1875 7.5625 5.1875 9.5625 4.1875 11.5625 C3.5275 11.5625 2.8675 11.5625 2.1875 11.5625 C1.878125 12.5525 1.878125 12.5525 1.5625 13.5625 C-0.33170856 17.69531869 -2.6012107 21.3209868 -5.8125 24.5625 C-9.125 25.625 -9.125 25.625 -11.8125 25.5625 C-12.8125 24.5625 -12.8125 24.5625 -12.9375 20.75 C-12.90651243 17.87332025 -12.72992334 15.31477001 -11.8125 12.5625 C-13.7925 13.5525 -15.7725 14.5425 -17.8125 15.5625 C-18.1425 15.2325 -18.4725 14.9025 -18.8125 14.5625 C-18.8125 7.82056452 -18.8125 7.82056452 -16.359375 4.734375 C-11.12216511 0.04365657 -6.97494416 -0.75631925 0 0 Z " fill="#2D2D2D" transform="translate(209.8125,75.4375)"/>
<path d="M0 0 C1.44096586 0.42594588 2.87768712 0.86626633 4.3125 1.3125 C5.11300781 1.55613281 5.91351563 1.79976563 6.73828125 2.05078125 C9.23047397 3.09672742 10.33916057 3.88021734 12 6 C12.35644531 8.35668945 12.35644531 8.35668945 12.328125 11.11328125 C12.32296875 12.11423828 12.3178125 13.11519531 12.3125 14.14648438 C12.291875 15.19126953 12.27125 16.23605469 12.25 17.3125 C12.24484375 18.34568359 12.2396875 19.37886719 12.234375 20.44335938 C12.18359167 25.39155982 12.03724066 30.14002562 11 35 C5.19315115 29.83835658 1.91992286 25.05668002 1.34838867 17.17895508 C1.25289766 15.18549139 1.1961512 13.19028941 1.140625 11.1953125 C1.22200945 8.10447253 1.22200945 8.10447253 0 6 C-0.039992 4.00039988 -0.04346799 1.99952758 0 0 Z " fill="#232323" transform="translate(243,400)"/>
<path d="M0 0 C2.02045442 0.60183749 4.02111039 1.27306096 6 2 C7.51516221 5.03032442 7.17028053 7.65114962 7 11 C6 13.9375 6 13.9375 5 16 C3.68 16 2.36 16 1 16 C0.01 12.7 -0.98 9.4 -2 6 C-2.33 6 -2.66 6 -3 6 C-2.938125 6.86625 -2.87625 7.7325 -2.8125 8.625 C-3.09940881 13.7893585 -4.7694814 16.83100733 -8.5 20.375 C-11 22 -11 22 -14 22 C-13.0896861 15.367713 -13.0896861 15.367713 -12.375 12.4375 C-11.91328736 9.43636783 -12.4540269 6.97025666 -13 4 C-12.14535156 3.79503906 -11.29070312 3.59007812 -10.41015625 3.37890625 C-9.30542969 3.10949219 -8.20070312 2.84007812 -7.0625 2.5625 C-5.40927734 2.16224609 -5.40927734 2.16224609 -3.72265625 1.75390625 C-1.10578746 1.27004275 -1.10578746 1.27004275 0 0 Z " fill="#2E2E2E" transform="translate(213,136)"/>
<path d="M0 0 C1.06089844 0.29261719 2.12179687 0.58523437 3.21484375 0.88671875 C4.81005859 1.31404297 4.81005859 1.31404297 6.4375 1.75 C9.15234375 2.57421875 9.15234375 2.57421875 11.15234375 3.57421875 C11.12914062 4.2496875 11.1059375 4.92515625 11.08203125 5.62109375 C11.06398438 6.513125 11.0459375 7.40515625 11.02734375 8.32421875 C11.00414062 9.2059375 10.9809375 10.08765625 10.95703125 10.99609375 C11.16397449 13.72774451 11.91385294 15.1752523 13.15234375 17.57421875 C13.15234375 18.89421875 13.15234375 20.21421875 13.15234375 21.57421875 C11.83234375 21.57421875 10.51234375 21.57421875 9.15234375 21.57421875 C9.15234375 20.91421875 9.15234375 20.25421875 9.15234375 19.57421875 C8.16234375 19.24421875 7.17234375 18.91421875 6.15234375 18.57421875 C3.0446207 14.64386312 1.62734185 11.56169877 1.15234375 6.57421875 C0.16234375 9.54421875 -0.82765625 12.51421875 -1.84765625 15.57421875 C-3.16765625 15.57421875 -4.48765625 15.57421875 -5.84765625 15.57421875 C-6.23945733 13.994959 -6.61046361 12.41053081 -6.97265625 10.82421875 C-7.18148438 9.9425 -7.3903125 9.06078125 -7.60546875 8.15234375 C-7.88462281 5.18070375 -7.52995478 4.00773235 -5.84765625 1.57421875 C-2.84765625 -0.42578125 -2.84765625 -0.42578125 0 0 Z " fill="#282828" transform="translate(287.84765625,136.42578125)"/>
<path d="M0 0 C0.03738281 0.80824219 0.07476562 1.61648437 0.11328125 2.44921875 C0.17902344 3.51785156 0.24476563 4.58648437 0.3125 5.6875 C0.39951172 7.27111328 0.39951172 7.27111328 0.48828125 8.88671875 C1.19982593 13.21573484 2.65615595 16.00171585 6.1875 18.625 C6.785625 19.07875 7.38375 19.5325 8 20 C8 20.99 8 21.98 8 23 C2.76196388 23.39285271 -1.39365679 22.43112558 -6 20 C-10.30864305 16.14489833 -11.2128293 11.53090991 -12 6 C-12 5.01 -12 4.02 -12 3 C-10.56445975 2.49440092 -9.1264798 1.9957251 -7.6875 1.5 C-6.88699219 1.2215625 -6.08648437 0.943125 -5.26171875 0.65625 C-3 0 -3 0 0 0 Z " fill="#292929" transform="translate(327,135)"/>
<path d="M0 0 C1.43793392 0.31049726 2.8753318 0.6234776 4.3125 0.9375 C5.51326172 1.19853516 5.51326172 1.19853516 6.73828125 1.46484375 C9 2 9 2 12 3 C11.97571621 9.71446727 11.6405561 14.78911283 6.74609375 19.6953125 C2.62528573 22.774395 -1.99222326 23.30350162 -7 23 C-6.62729939 19.76992803 -5.78470413 18.76855694 -3.5 16.3125 C0.61261388 11.65469811 0 5.90469168 0 0 Z " fill="#242424" transform="translate(173,135)"/>
<path d="M0 0 C-0.33 0.66 -0.66 1.32 -1 2 C-1.66 2 -2.32 2 -3 2 C-3 3.32 -3 4.64 -3 6 C-4.32 6.33 -5.64 6.66 -7 7 C-7.33623796 8.2909136 -7.66889249 9.58276097 -8 10.875 C-8.185625 11.59429687 -8.37125 12.31359375 -8.5625 13.0546875 C-9.07313965 14.99289317 -9.07313965 14.99289317 -9 17 C-9 19.375 -9 19.375 -10 22 C-13.89549453 24.74869007 -18.27031919 26.4087899 -23 27 C-21.69989364 16.33912781 -16.06077255 7.85872752 -8 1 C-4.86832663 -0.84839368 -3.47192531 -1.23997332 0 0 Z M-5 3 C-4 5 -4 5 -4 5 Z " fill="#2C2C2C" transform="translate(292,115)"/>
<path d="M0 0 C2.38564077 0.57584432 4.66682784 1.22227595 7 2 C7 2.66 7 3.32 7 4 C7.5878125 4.25652344 8.175625 4.51304688 8.78125 4.77734375 C15.49959607 8.47953093 19.76046017 15.86061849 22 23 C22.25 26.0625 22.25 26.0625 22 28 C16.98491285 26.45941767 12.3852919 24.97068161 8 22 C8.226875 20.741875 8.45375 19.48375 8.6875 18.1875 C9.22006708 14.89580084 9.22006708 14.89580084 7.5625 12.125 C7.046875 11.75375 6.53125 11.3825 6 11 C6 10.34 6 9.68 6 9 C5.34 9 4.68 9 4 9 C3.896875 8.38125 3.79375 7.7625 3.6875 7.125 C3.12474627 4.63473516 3.12474627 4.63473516 0 3 C0 2.01 0 1.02 0 0 Z " fill="#363636" transform="translate(209,114)"/>
<path d="M0 0 C2.86724686 0.57344937 3.8614515 0.8614515 6 3 C6.125 6.625 6.125 6.625 6 10 C4.02 10.99 4.02 10.99 2 12 C2 12.66 2 13.32 2 14 C1.34 14 0.68 14 0 14 C0 14.66 0 15.32 0 16 C-0.66 16 -1.32 16 -2 16 C-2 16.66 -2 17.32 -2 18 C-3.95890881 19.39300182 -5.9639118 20.72245446 -8 22 C-8.99 22.66 -9.98 23.32 -11 24 C-11.99 24 -12.98 24 -14 24 C-13.49480889 19.32484156 -11.57669604 16.76604902 -8.6875 13.125 C-5.40061008 8.91040601 -2.47844212 4.74136753 0 0 Z " fill="#2E2E2E" transform="translate(240,447)"/>
<path d="M0 0 C3.63 0.33 7.26 0.66 11 1 C11.45441176 10.99705882 11.45441176 10.99705882 8 16 C4.35147152 18.83774437 0.44301457 19.86746687 -4 21 C-4 17 -4 17 -2 13.875 C0.8075129 9.33750556 0.28577441 5.21538296 0 0 Z " fill="#272727" transform="translate(186,138)"/>
<path d="M0 0 C0.06058594 0.74765625 0.12117188 1.4953125 0.18359375 2.265625 C0.26738281 3.25046875 0.35117187 4.2353125 0.4375 5.25 C0.51871094 6.22453125 0.59992188 7.1990625 0.68359375 8.203125 C0.95074584 10.56461753 1.35371968 12.71901065 2 15 C2.66 15 3.32 15 4 15 C4 15.66 4 16.32 4 17 C4.66 17 5.32 17 6 17 C6 18.32 6 19.64 6 21 C0.73129122 20.56990132 -4.02568068 19.73800844 -8 16 C-10.30538629 11.30762082 -10.21326466 6.11835189 -10 1 C-3.375 0 -3.375 0 0 0 Z " fill="#2B2B2B" transform="translate(313,138)"/>
<path d="M0 0 C0.66 0 1.32 0 2 0 C3.96782291 4.93900215 4.27775332 9.09205799 4.1875 14.3125 C4.18685547 15.04017578 4.18621094 15.76785156 4.18554688 16.51757812 C4.14074248 21.85925752 4.14074248 21.85925752 3 23 C-1.37360246 23.50464644 -3.31464078 23.52146897 -6.875 20.8125 C-8.98263518 18.02298284 -9.70554242 16.43533844 -10 13 C-8.02 12.34 -6.04 11.68 -4 11 C-4 10.34 -4 9.68 -4 9 C-3.34 9 -2.68 9 -2 9 C-1.34 6.03 -0.68 3.06 0 0 Z " fill="#222222" transform="translate(279,95)"/>
<path d="M0 0 C0.66 0 1.32 0 2 0 C2 1.98 2 3.96 2 6 C2.66 6 3.32 6 4 6 C4.20625 6.598125 4.4125 7.19625 4.625 7.8125 C6.50926082 10.81018767 8.81132084 11.61361776 12 13 C11.70197895 16.47691229 10.9882377 18.01512296 8.8125 20.8125 C6 23 6 23 2.8125 23.4375 C0 23 0 23 -2 21 C-2.265625 17.734375 -2.265625 17.734375 -2.25 13.75 C-2.25515625 12.44546875 -2.2603125 11.1409375 -2.265625 9.796875 C-2.01185975 6.16952464 -1.31856654 3.36967005 0 0 Z " fill="#252525" transform="translate(219,95)"/>
<path d="M0 0 C2.74190982 2.33868779 3.84884523 4.45419797 5.125 7.8125 C5.3125 10.6875 5.3125 10.6875 5.125 12.8125 C4.135 13.3075 4.135 13.3075 3.125 13.8125 C1.42383624 12.87238318 -0.24004293 11.86354383 -1.875 10.8125 C-2.98875 10.3175 -2.98875 10.3175 -4.125 9.8125 C-5.875 8.8125 -5.875 8.8125 -6.875 5.8125 C-10.6710081 3.91449595 -14.79317126 2.93300201 -18.875 1.8125 C-18.545 0.8225 -18.215 -0.1675 -17.875 -1.1875 C-11.71298552 -2.60950334 -5.85725701 -2.41930181 0 0 Z " fill="#333333" transform="translate(303.875,77.1875)"/>
<path d="M0 0 C-0.61277612 2.96175123 -1.25372522 4.38058783 -3 7 C-3.60103341 9.21389829 -4.13675809 11.44602579 -4.625 13.6875 C-4.88539063 14.86699219 -5.14578125 16.04648438 -5.4140625 17.26171875 C-5.60742188 18.16535156 -5.80078125 19.06898437 -6 20 C-8.33294775 20.04241723 -10.66702567 20.04092937 -13 20 C-14.64156736 18.35843264 -14.28815992 16.50784199 -14.375 14.25 C-14.32621979 10.44514367 -14.22187153 9.30927546 -11.9375 6.125 C-3.47058824 0 -3.47058824 0 0 0 Z " fill="#292929" transform="translate(220,89)"/>
<path d="M0 0 C9.04357921 3.98731916 9.04357921 3.98731916 12.125 7.25 C13.36700648 11.15344894 13.43672289 14.9351177 13 19 C12 20 12 20 8.4375 20.0625 C7.303125 20.041875 6.16875 20.02125 5 20 C4.81824219 19.21496094 4.63648438 18.42992188 4.44921875 17.62109375 C3.05781612 11.80574429 1.57724954 6.39995141 -1 1 C-0.67 0.67 -0.34 0.34 0 0 Z " fill="#2C2C2C" transform="translate(281,89)"/>
<path d="M0 0 C2 1 4 2 6 3 C6 10.92 6 18.84 6 27 C4.68 27.33 3.36 27.66 2 28 C-0.78772868 25.21227132 -0.06870166 17.86371745 -0.09765625 14.0625 C-0.09111544 12.37497199 -0.07934864 10.68745658 -0.0625 9 C-0.05798828 8.12988281 -0.05347656 7.25976562 -0.04882812 6.36328125 C-0.0371736 4.24215707 -0.01924357 2.1210689 0 0 Z " fill="#2F2F2F" transform="translate(247,453)"/>
<path d="M0 0 C1.91731918 0.11455681 3.8338675 0.24206258 5.75 0.375 C6.81734375 0.44460937 7.8846875 0.51421875 8.984375 0.5859375 C11.80206432 0.9728223 13.5830366 1.55686166 16 3 C16 4.98 16 6.96 16 9 C16.99 9.33 17.98 9.66 19 10 C18.67 10.99 18.34 11.98 18 13 C11.33333333 9.66666667 4.66666667 6.33333333 -2 3 C-1.34 2.01 -0.68 1.02 0 0 Z " fill="#3C3C3C" transform="translate(207,175)"/>
<path d="M0 0 C1.8125 1.5 1.8125 1.5 3 3 C1.99839844 3.41894531 0.99679687 3.83789062 -0.03515625 4.26953125 C-3.91243398 5.9312217 -7.67594705 7.78085041 -11.4375 9.6875 C-12.07365234 10.00783203 -12.70980469 10.32816406 -13.36523438 10.65820312 C-14.91109357 11.43694422 -16.45568387 12.21820334 -18 13 C-18.33 12.34 -18.66 11.68 -19 11 C-18.34 10.4225 -17.68 9.845 -17 9.25 C-14.55709077 7.00346023 -14.55709077 7.00346023 -15 3 C-10.44688003 0.37320002 -5.22223736 -0.5645662 0 0 Z " fill="#3C3C3C" transform="translate(293,175)"/>
<path d="M0 0 C2.75 1.3125 2.75 1.3125 3.75 3.3125 C4.00785684 7.86797083 3.74851462 11.1905636 1.75 15.3125 C0.43 15.3125 -0.89 15.3125 -2.25 15.3125 C-3.24 12.0125 -4.23 8.7125 -5.25 5.3125 C-6.24 5.3125 -7.23 5.3125 -8.25 5.3125 C-8.25 4.3225 -8.25 3.3325 -8.25 2.3125 C-5.19663059 -0.2918445 -3.98301099 -0.84256002 0 0 Z " fill="#444444" transform="translate(216.25,136.6875)"/>
<path d="M0 0 C1.98567708 0.5859375 3.97135417 1.171875 5.95703125 1.7578125 C5.35890625 2.3971875 4.76078125 3.0365625 4.14453125 3.6953125 C1.42459806 7.50321896 0.23977752 11.29735387 -1.04296875 15.7578125 C-2.36296875 15.7578125 -3.68296875 15.7578125 -5.04296875 15.7578125 C-5.43476983 14.17855275 -5.80577611 12.59412456 -6.16796875 11.0078125 C-6.37679688 10.12609375 -6.585625 9.244375 -6.80078125 8.3359375 C-7.07993531 5.3642975 -6.72526728 4.1913261 -5.04296875 1.7578125 C-2.04296875 -0.2421875 -2.04296875 -0.2421875 0 0 Z " fill="#3B3B3B" transform="translate(287.04296875,136.2421875)"/>
<path d="M0 0 C-0.94875 0.391875 -1.8975 0.78375 -2.875 1.1875 C-6.34127338 3.19793856 -6.9802693 4.22699642 -8 8 C-8.66 7.67 -9.32 7.34 -10 7 C-9.875 4.6875 -9.875 4.6875 -9 2 C-3.92647059 -1.30882353 -3.92647059 -1.30882353 0 0 Z " fill="#6D6D6D" transform="translate(300,166)"/>
<path d="M0 0 C1.53202706 0.25195908 3.05257128 0.57596777 4.5625 0.9375 C5.38878906 1.13214844 6.21507812 1.32679688 7.06640625 1.52734375 C8.02353516 1.76130859 8.02353516 1.76130859 9 2 C9 2.33 9 2.66 9 3 C6.69 2.67 4.38 2.34 2 2 C1.34 3.65 0.68 5.3 0 7 C-0.33 7 -0.66 7 -1 7 C-1.04254356 5.00045254 -1.04080783 2.99958364 -1 1 C-0.67 0.67 -0.34 0.34 0 0 Z " fill="#868686" transform="translate(238,267)"/>
<path d="M0 0 C0.556875 0.226875 1.11375 0.45375 1.6875 0.6875 C1.3575 1.3475 1.0275 2.0075 0.6875 2.6875 C0.0275 2.6875 -0.6325 2.6875 -1.3125 2.6875 C-1.3125 4.0075 -1.3125 5.3275 -1.3125 6.6875 C-1.9725 6.3575 -2.6325 6.0275 -3.3125 5.6875 C-3.3125 5.0275 -3.3125 4.3675 -3.3125 3.6875 C-4.6325 3.3575 -5.9525 3.0275 -7.3125 2.6875 C-2.88173077 -0.38942308 -2.88173077 -0.38942308 0 0 Z " fill="#898989" transform="translate(290.3125,114.3125)"/>
<path d="M0 0 C0.66 0.33 1.32 0.66 2 1 C-0.31 3.31 -2.62 5.62 -5 8 C-5.66 7.67 -6.32 7.34 -7 7 C-4.78071806 4.09197539 -3.07030857 2.04687238 0 0 Z " fill="#575757" transform="translate(165,166)"/>
<path d="M0 0 C0.33 0 0.66 0 1 0 C1 2.97 1 5.94 1 9 C0.01 9 -0.98 9 -2 9 C-2.33 8.34 -2.66 7.68 -3 7 C-2.06421005 4.64018187 -1.06652192 2.30368736 0 0 Z " fill="#505050" transform="translate(305,102)"/>
<path d="M0 0 C-1.1446875 0.6496875 -1.1446875 0.6496875 -2.3125 1.3125 C-4.58093768 2.73686785 -6.2199723 4.03260097 -8 6 C-8.66 5.67 -9.32 5.34 -10 5 C-5 -1.5 -5 -1.5 0 0 Z " fill="#565656" transform="translate(214,264)"/>
</svg>
